<svg width="42" height="38" viewBox="0 0 42 38" fill="none" xmlns="http://www.w3.org/2000/svg">
<path d="M20.9925 7.15802L8.18999 0.619967C4.43999 -1.28503 0 1.42997 0 5.62997V17.6C0 21.7999 4.43999 24.53 8.18999 22.61L9.22374 22.0821L4.96486 33.1263C4.61986 34.0059 5.53484 34.8555 6.38984 34.4681L9.77985 32.9475C10.3199 32.709 10.9499 32.9475 11.1898 33.4841L12.6748 36.868C13.0498 37.7327 14.2949 37.7028 14.6399 36.8234L20.9848 20.3564L27.3298 36.8234C27.6749 37.7028 28.9198 37.7327 29.2948 36.868L30.7799 33.4841C31.0198 32.9475 31.6498 32.709 32.1898 32.9475L35.5798 34.4681C36.4348 34.8555 37.3498 34.0059 37.0049 33.1263L32.7421 22.0723L33.795 22.61C37.545 24.53 41.985 21.7999 41.985 17.6V5.62997C41.985 1.42997 37.545 -1.28503 33.795 0.619967L20.9925 7.15802Z" fill="#B09050"/>
</svg>
